<svg width="139" height="36" viewBox="0 0 139 36" fill="none" xmlns="http://www.w3.org/2000/svg">
<path d="M30.1729 24.8256V24.3374H31.1556V24.8256V35.4936V35.9818H30.1729V35.4936V24.8256Z" fill="black"/>
<path d="M44.3314 35.4936L44.3496 35.9999H43.4033L43.3851 35.5117L43.3669 29.2555C43.3669 27.1039 41.7654 25.3138 39.709 25.3138C37.6525 25.3138 36.0511 27.1039 36.0511 29.2555V29.7437V35.4936V35.9818H35.0684V35.4936V29.7437V29.2555V28.7673H35.0866C35.3231 26.254 37.3068 24.3374 39.6908 24.3374C42.2204 24.3374 44.3314 26.5252 44.3314 29.2555V35.4936Z" fill="black"/>
<path d="M48.7169 22.3848H48.2256V21.4084H48.7169H48.7533H49.2265V22.3848H48.7533H48.7169Z" fill="black"/>
<path d="M30.4826 22.3848H29.9912V21.4084H30.4826H30.5008H30.9921V22.3848H30.5008H30.4826Z" fill="black"/>
<path d="M48.2256 24.8256V24.3374H49.2083V24.8256V35.4936V35.9818H48.2256V35.4936V24.8256Z" fill="black"/>
<path d="M60.8193 26.7061C61.5109 25.2776 62.8757 24.3374 64.4226 24.3374C66.661 24.3374 68.5173 26.3083 68.5173 28.8758V35.4936L68.5355 35.9999H67.5891L67.5709 35.5117L67.5527 28.8758C67.5527 26.9411 66.1879 25.3138 64.4226 25.3138C62.6574 25.3138 61.2925 26.9411 61.2925 28.8758V29.364V35.4936L61.3107 35.9999H60.3644L60.3462 35.5117C60.3462 33.4685 60.328 31.4072 60.328 29.364V28.8758C60.328 26.9411 58.9631 25.3138 57.1978 25.3138C55.4326 25.3138 54.0677 26.9411 54.0677 28.8758V29.364V35.4936V35.9818H53.085V35.4936V29.364V28.8758V28.3876H53.1032C53.3215 26.0551 55.0868 24.3374 57.1796 24.3374C58.7629 24.3374 60.1278 25.2776 60.8193 26.7061Z" fill="black"/>
<path d="M71.4658 30.1596C71.4658 26.905 73.9044 24.3374 76.8344 24.3374C78.636 24.3374 80.2557 25.3138 81.2202 26.8146V24.8256V24.3374H82.2029V24.8256V30.1596V35.4936V35.9818H81.2202V35.4936V33.5047C80.2375 35.0054 78.636 35.9818 76.8344 35.9818C73.9044 35.9818 71.4658 33.4143 71.4658 30.1596ZM72.4303 30.1596C72.4303 32.8176 74.3776 35.0054 76.8162 35.0054C79.2548 35.0054 81.202 32.8176 81.202 30.1596C81.202 27.5016 79.2548 25.3138 76.8162 25.3138C74.3776 25.3138 72.4303 27.5016 72.4303 30.1596Z" fill="black"/>
<path d="M86.0967 19.4916V19.0034H87.0794V19.4916V35.4936V35.9818H86.0967V35.4936V19.4916Z" fill="black"/>
<path d="M107.226 19.4917H107.717V20.4681H107.226H96.9798V27.2486H104.35H104.842V28.225H104.35H96.9798V35.0055H99.382H99.8733V35.9819H99.382H96.4884H95.9971V35.4937V28.225V27.2486V19.9799V19.4917H96.4884H107.226Z" fill="black"/>
<path d="M107.226 30.1596C107.226 26.905 109.664 24.3374 112.594 24.3374C114.396 24.3374 116.015 25.3138 116.98 26.8146V24.8256V24.3374H117.963V24.8256V30.1596V35.4936V35.9818H116.98V35.4936V33.5047C115.997 35.0054 114.396 35.9818 112.594 35.9818C109.664 35.9818 107.226 33.4143 107.226 30.1596ZM108.19 30.1596C108.19 32.8176 110.137 35.0054 112.576 35.0054C115.015 35.0054 116.962 32.8176 116.962 30.1596C116.962 27.5016 115.015 25.3138 112.576 25.3138C110.156 25.3138 108.19 27.5016 108.19 30.1596Z" fill="black"/>
<path d="M128.863 27.5018V27.99H127.881V27.5018C127.881 26.2361 126.589 25.314 125.424 25.314C124.15 25.314 122.912 26.2361 122.912 27.5018C122.912 28.659 124.223 29.4365 125.369 29.6173C127.025 29.6173 128.863 31.2446 128.863 32.8358C128.863 34.5355 127.134 35.982 125.424 35.982C123.622 35.982 121.93 34.5535 121.93 32.8358V32.3476H122.912V32.8358C122.912 34.0653 124.15 35.0237 125.424 35.0237C126.589 35.0237 127.881 34.0473 127.881 32.8358C127.881 31.6786 126.534 30.5756 125.315 30.5756C123.531 30.3044 121.93 29.0568 121.93 27.5018C121.93 25.7479 123.604 24.3556 125.424 24.3556C127.116 24.3376 128.863 25.7479 128.863 27.5018Z" fill="black"/>
<path d="M134.833 25.3139V32.8357V35.4937V35.9819H133.85V35.4937V32.8357V25.3139H133.304H132.812V24.3375H133.304H133.85V21.788V21.2998H134.833V21.788V24.3375H138.509H139V25.3139H138.509H134.833Z" fill="black"/>
<path d="M26.5334 35.9638V0L10.0274 24.7715L0.109191 9.8001L0 24.2109L0.564153 24.4641L0.691542 11.4817" fill="black"/>
</svg>
